<?xml version="1.0" encoding="utf-8"?>
<!-- Generator: Adobe Illustrator 26.3.0, SVG Export Plug-In . SVG Version: 6.00 Build 0)  -->
<svg version="1.1" id="Camada_1" xmlns="http://www.w3.org/2000/svg" xmlns:xlink="http://www.w3.org/1999/xlink" x="0px" y="0px"
	 viewBox="0 0 1366 768" style="enable-background:new 0 0 1366 768;" xml:space="preserve">
<style type="text/css">
	.st0{fill:#FFFFFF;}
</style>
<g>
	<path class="st0" d="M639.36,335.56c-13.28-2.46-25.24-0.27-36.71,5.53c-6.62,3.35-13.04,2.44-18.57-2.35
		c-5.19-4.49-7.06-10.35-5.18-17.1c1.92-6.94,6.64-10.9,13.62-12.26c3.75-0.73,7.28,0.12,10.61,1.81
		c17.06,8.63,34.09,8.57,51.21,0.11c9.31-4.6,19.57-1.11,23.52,7.84c4.01,9.08-0.22,18.68-9.71,22.89
		c-20.43,9.08-35.5,24.66-50.45,41.65c13.5,2.87,25.37,0.58,36.8-5.11c7.58-3.77,16.13-2,21.13,4.31c5.09,6.41,4.92,15.26-0.4,21.58
		c-4.73,5.61-13.18,7.66-19.95,4.2c-17.74-9.06-35.26-8.99-53.01,0c-8.34,4.22-18.52,0.31-22.38-8c-4.16-8.97-0.47-18.66,8.82-22.79
		c20.29-9,35.6-24.1,49.87-40.5C638.87,337.03,638.96,336.5,639.36,335.56z"/>
</g>
</svg>
